<?xml version="1.0" standalone="no"?><svg xmlns="http://www.w3.org/2000/svg" viewBox="0 0 1440 320"><path fill="#d17391" fill-opacity="1" d="M0,256L17.1,240C34.3,224,69,192,103,197.3C137.1,203,171,245,206,266.7C240,288,274,288,309,266.7C342.9,245,377,203,411,165.3C445.7,128,480,96,514,80C548.6,64,583,64,617,69.3C651.4,75,686,85,720,85.3C754.3,85,789,75,823,58.7C857.1,43,891,21,926,48C960,75,994,149,1029,154.7C1062.9,160,1097,96,1131,106.7C1165.7,117,1200,203,1234,229.3C1268.6,256,1303,224,1337,218.7C1371.4,213,1406,235,1423,245.3L1440,256L1440,0L1422.9,0C1405.7,0,1371,0,1337,0C1302.9,0,1269,0,1234,0C1200,0,1166,0,1131,0C1097.1,0,1063,0,1029,0C994.3,0,960,0,926,0C891.4,0,857,0,823,0C788.6,0,754,0,720,0C685.7,0,651,0,617,0C582.9,0,549,0,514,0C480,0,446,0,411,0C377.1,0,343,0,309,0C274.3,0,240,0,206,0C171.4,0,137,0,103,0C68.6,0,34,0,17,0L0,0Z"></path></svg>